<?xml version="1.0" encoding="UTF-8"?>
<svg xmlns="http://www.w3.org/2000/svg" width="210" height="39" viewBox="0 0 210 39" fill="none">
  <path d="M0.588 7.4H15.148L15.428 13.224H14.924C13.552 9.192 12.068 8.016 8.484 8.016H7.7V17.116H8.96C10.78 17.116 11.984 15.688 12.432 13.448H12.852V21.736H12.376C11.76 18.908 10.78 17.844 8.96 17.844H7.7V26.384H11.172V27H0.588V26.384H2.24V8.016H0.588V7.4ZM32.3827 27H25.9987L25.6907 24.956C25.1587 26.272 24.2627 27.28 21.7427 27.28C19.1387 27.28 17.4027 25.992 17.4027 22.604V14.176H15.8347V13.672H22.6107V23.276C22.6107 25.656 22.9467 26.02 23.6467 26.02C24.7667 26.02 25.6347 24.872 25.6347 22.744V14.176H24.3467V13.672H30.8427V26.496H32.3827V27ZM42.3078 14.456C40.9638 14.456 39.7038 16.472 39.7038 18.992V26.496H41.6918V27H32.9558V26.496H34.4958V14.176H32.9558V13.672H39.7038V16.36C40.2078 14.372 41.7758 13.392 43.4558 13.392C45.1078 13.392 46.4238 14.26 46.4238 16.388C46.4238 17.984 45.5838 19.048 44.0718 19.048C42.1958 19.048 41.2998 17.872 41.8878 15.884H42.8958C43.4558 14.736 42.8958 14.456 42.3078 14.456ZM46.8751 13.672H53.6231V16.248C54.0991 14.848 55.0231 13.392 57.7951 13.392C60.3991 13.392 62.1351 14.68 62.1351 18.068V26.496H63.7031V27H55.7791V26.496H56.9271V17.396C56.9271 15.016 56.5911 14.736 55.8911 14.736C54.7151 14.736 53.6231 16.5 53.6231 18.768V26.496H54.8271V27H46.8751V26.496H48.4151V14.176H46.8751V13.672ZM65.445 9.136C65.445 7.764 66.201 6.532 68.301 6.532C70.037 6.532 71.073 7.4 71.073 9.108C71.073 10.592 70.261 11.74 68.245 11.74C65.977 11.74 65.445 10.312 65.445 9.136ZM63.961 13.672H70.821V26.496H72.389V27H64.073V26.496H65.613V14.176H63.961V13.672ZM74.3597 22.996V14.176H72.8197V13.672H74.3597V10.06L79.5677 8.772V13.672H83.2077V14.176H79.5677V23.612C79.5677 25.264 79.8197 26.16 80.7997 26.16C82.1437 26.16 82.9837 24.928 83.2357 23.024L83.7117 23.08C83.4597 25.264 82.5357 27.28 79.1197 27.28C76.3477 27.28 74.3597 26.468 74.3597 22.996ZM100.223 27H93.8385L93.5305 24.956C92.9985 26.272 92.1025 27.28 89.5825 27.28C86.9785 27.28 85.2425 25.992 85.2425 22.604V14.176H83.6745V13.672H90.4505V23.276C90.4505 25.656 90.7865 26.02 91.4865 26.02C92.6065 26.02 93.4745 24.872 93.4745 22.744V14.176H92.1865V13.672H98.6825V26.496H100.223V27ZM110.148 14.456C108.804 14.456 107.544 16.472 107.544 18.992V26.496H109.532V27H100.796V26.496H102.336V14.176H100.796V13.672H107.544V16.36C108.048 14.372 109.616 13.392 111.296 13.392C112.948 13.392 114.264 14.26 114.264 16.388C114.264 17.984 113.424 19.048 111.912 19.048C110.036 19.048 109.14 17.872 109.728 15.884H110.736C111.296 14.736 110.736 14.456 110.148 14.456ZM114.662 20.364C114.662 15.52 117.966 13.392 121.858 13.392C126.254 13.392 128.13 15.604 127.962 19.776H120.066V20.868C120.066 24.172 120.654 26.412 123.37 26.412C125.442 26.412 126.842 25.096 127.458 22.94L127.962 23.024C127.318 25.432 125.862 27.28 121.886 27.28C116.902 27.28 114.662 24.424 114.662 20.364ZM120.094 19.216H122.978V17.844C122.978 14.904 122.754 13.924 121.606 13.924C120.626 13.924 120.094 14.876 120.094 17.844V19.216ZM129.268 7.4H138.004V7.932H136.38V16.612H141.952V7.932H140.3V7.4H149.064V7.932H147.412V26.468H149.064V27H140.3V26.468H141.952V17.34H136.38V26.468H138.004V27H129.268V26.468H130.92V7.932H129.268V7.4ZM156.652 20.42H157.464V18.264C157.464 14.708 157.156 13.784 156.036 13.784C155.532 13.784 154.72 14.008 154.72 14.904C154.72 15.128 154.776 15.408 154.888 15.716H155.588C155.728 16.08 155.812 16.444 155.812 16.976C155.812 18.292 154.748 19.16 153.348 19.16C151.612 19.16 150.94 18.208 150.94 16.836C150.94 14.484 152.984 13.392 156.792 13.392C161.188 13.392 162.672 14.624 162.672 18.684V24.368C162.672 25.516 163.008 25.824 163.484 25.824C163.988 25.824 164.464 25.292 164.604 22.94L165.024 22.968C164.884 26.328 163.848 27.28 161.44 27.28C159.172 27.28 157.912 26.58 157.576 25.208C157.128 26.552 156.316 27.28 154.356 27.28C152.396 27.28 150.212 26.692 150.212 23.892C150.212 21.064 152.648 20.42 156.652 20.42ZM156.26 26.16C156.792 26.16 157.464 25.264 157.464 23.472V20.868H157.268C156.092 20.868 155.532 21.708 155.532 23.416V23.864C155.532 25.88 155.728 26.16 156.26 26.16ZM163.352 14.176V13.672H171.724V14.176H169.96L173.32 23.472L176.344 14.176H174.468V13.672H178.248V14.176H177.016L172.872 27H169.68L164.5 14.176H163.352ZM177.963 20.364C177.963 15.52 181.267 13.392 185.159 13.392C189.555 13.392 191.431 15.604 191.263 19.776H183.367V20.868C183.367 24.172 183.955 26.412 186.671 26.412C188.743 26.412 190.143 25.096 190.759 22.94L191.263 23.024C190.619 25.432 189.163 27.28 185.187 27.28C180.203 27.28 177.963 24.424 177.963 20.364ZM183.395 19.216H186.279V17.844C186.279 14.904 186.055 13.924 184.907 13.924C183.927 13.924 183.395 14.876 183.395 17.844V19.216ZM192.316 13.672H199.064V16.248C199.54 14.848 200.464 13.392 203.236 13.392C205.84 13.392 207.576 14.68 207.576 18.068V26.496H209.144V27H201.22V26.496H202.368V17.396C202.368 15.016 202.032 14.736 201.332 14.736C200.156 14.736 199.064 16.5 199.064 18.768V26.496H200.268V27H192.316V26.496H193.856V14.176H192.316V13.672Z" fill="#111318"></path>
</svg>
