<svg width="140" height="24" viewBox="0 0 140 24" fill="none" xmlns="http://www.w3.org/2000/svg">
<path d="M21.64 16.27C20.11 19.27 17.8 21.04 15.1 21.43C9.82 22.24 5.5 19.48 3.88 14.2C2.26 8.89 4.12 2.83 9.25 1.72C13.18 0.879999 16.75 3.46 18.94 6.94H19.15L20.05 3.52C17.5 1.84 15.55 1 12.31 1C6.37 1 1 5.8 1 11.74C1 17.68 6.13 22.48 12.04 22.48C17.35 22.48 20.23 19.72 21.85 16.36L21.64 16.27Z" fill="#261A13"/>
<path d="M36.0665 16.93L33.3665 12.19C36.3665 11.5 38.6165 9.79 38.6165 6.97C38.6165 3.04 34.4165 1.3 29.7665 1.3H23.9465C23.9465 1.3 23.9465 1.48 23.9465 1.54C24.3965 1.81 24.6065 2.23 24.6065 3.31V20.32C24.6065 21.37 24.3965 21.82 23.9465 22.09C23.9465 22.15 23.9465 22.3 23.9465 22.3H27.6365C27.6365 22.3 27.6365 22.15 27.6365 22.09C27.1865 21.82 26.9765 21.37 26.9765 20.32V12.61H29.7665C30.2165 12.61 30.6665 12.58 31.1165 12.55L34.3265 18.16C35.4965 20.23 36.1265 21.31 35.3465 22.09V22.3H39.9665V22.09C38.7965 21.04 37.8365 20.02 36.0665 16.93ZM29.7665 12.37H26.9765V1.54H29.7665C35.4665 1.54 36.2465 4.63 36.2465 6.97C36.2465 9.28 35.4365 12.37 29.7665 12.37Z" fill="#261A13"/>
<path d="M58.596 22.09C57.456 20.74 56.676 19.54 55.446 16.54L49.596 1.3H47.226L48.216 3.88L43.716 16.54C42.726 19.36 41.856 20.74 40.566 22.09V22.3H44.106V22.09C42.846 20.74 42.996 19.27 43.956 16.54L44.766 14.26H52.206L53.676 18.07C54.516 20.26 54.756 21.31 53.976 22.09V22.3H58.596V22.09ZM44.856 14.02L48.336 4.21L52.116 14.02H44.856Z" fill="#261A13"/>
<path d="M71.4088 1.3H60.0988C60.0988 1.3 60.0988 1.48 60.0988 1.54C60.5488 1.81 60.7588 2.26 60.7588 3.31V20.32C60.7588 21.37 60.5488 21.82 60.0988 22.09C60.0988 22.15 60.0988 22.3 60.0988 22.3H63.7888C63.7888 22.3 63.7888 22.15 63.7888 22.09C63.3388 21.82 63.1288 21.37 63.1288 20.32V11.59L70.0288 12.25V10.72L63.1288 11.35V1.54H65.6488C68.9788 1.54 70.8688 3.52 72.2188 5.05L72.3688 4.96L71.4088 1.3Z" fill="#261A13"/>
<path d="M89.4684 1.3H74.2284L73.2684 4.96L73.4484 5.05C74.7984 3.52 76.6884 1.54 80.0184 1.54H80.6784V20.32C80.6784 21.37 80.4384 21.82 79.9884 22.09C79.9884 22.15 79.9884 22.3 79.9884 22.3H83.7084C83.7084 22.3 83.7084 22.15 83.7084 22.09C83.2584 21.82 83.0184 21.37 83.0184 20.32V1.54H83.6784C87.0084 1.54 88.8984 3.52 90.2484 5.05L90.4284 4.96L89.4684 1.3Z" fill="#261A13"/>
<path d="M104.897 18.55C103.487 20.38 100.998 22.09 97.6975 22.09H95.2675V10.63L102.827 11.26V9.73L95.2675 10.39V1.54H97.3675C100.698 1.54 102.557 3.19 103.938 4.75L104.088 4.63L103.457 1.3H92.2375C92.2375 1.3 92.2375 1.48 92.2375 1.54C92.6875 1.81 92.8975 2.26 92.8975 3.31V20.32C92.8975 21.37 92.6875 21.82 92.2375 22.09C92.2375 22.15 92.2375 22.3 92.2375 22.3H104.417L105.077 18.67L104.897 18.55Z" fill="#261A13"/>
<path d="M119.299 16.93L116.599 12.19C119.599 11.5 121.849 9.79 121.849 6.97C121.849 3.04 117.649 1.3 112.999 1.3H107.179C107.179 1.3 107.179 1.48 107.179 1.54C107.629 1.81 107.839 2.23 107.839 3.31V20.32C107.839 21.37 107.629 21.82 107.179 22.09C107.179 22.15 107.179 22.3 107.179 22.3H110.869C110.869 22.3 110.869 22.15 110.869 22.09C110.419 21.82 110.209 21.37 110.209 20.32V12.61H112.999C113.449 12.61 113.899 12.58 114.349 12.55L117.559 18.16C118.729 20.23 119.359 21.31 118.579 22.09V22.3H123.199V22.09C122.029 21.04 121.069 20.02 119.299 16.93ZM112.999 12.37H110.209V1.54H112.999C118.699 1.54 119.479 4.63 119.479 6.97C119.479 9.28 118.669 12.37 112.999 12.37Z" fill="#261A13"/>
<path d="M132.753 1C127.923 1 125.972 4.03 125.972 6.46C125.972 13.99 138.873 11.95 138.093 18.34C137.853 20.23 135.723 21.88 133.173 21.88C129.243 21.88 126.453 19.15 124.923 16.09H124.713L123.812 19.51C126.153 21.28 128.373 22.48 131.943 22.48C136.203 22.48 139.413 19.96 139.413 16.39C139.413 8.89 126.542 10.87 127.112 4.87C127.292 3.07 129.003 1.39 131.973 1.39C134.343 1.39 136.533 2.92 138.243 6.94H138.452L139.353 3.82C137.583 2.44 135.063 1 132.753 1Z" fill="#261A13"/>
</svg>
